<svg xmlns="http://www.w3.org/2000/svg" viewBox="0 0 74.8 92.5"><defs><style>.a{fill:none;}.b{fill:#5692ce;}</style></defs><title>OCHA_logo3</title><rect class="a" width="74.8" height="92.5"/><path class="b" d="M6.4,76.9a7.8,7.8,0,0,1,7.9-8,8,8,0,0,1,0,16A7.8,7.8,0,0,1,6.4,76.9Zm13.6,0c0-3.3-2.2-6-5.7-6s-5.7,2.7-5.7,6S10.8,83,14.3,83,20,80.2,20,76.9Z" transform="translate(-0.4 -1.1)"/><path class="b" d="M35.8,72.6a4.8,4.8,0,0,0-3.7-1.7c-3.4,0-5.7,2.7-5.7,6.1a5.7,5.7,0,0,0,5.7,6,4.8,4.8,0,0,0,4-2.1l1.7,1.3a6.8,6.8,0,0,1-5.7,2.7A7.8,7.8,0,0,1,24.2,77a7.7,7.7,0,0,1,8-8.1,6.6,6.6,0,0,1,5.3,2.4Z" transform="translate(-0.4 -1.1)"/><path class="b" d="M40.3,69.3h2.1v6.3h7.8V69.3h2.1V84.5H50.2V77.6H42.4v6.9H40.3Z" transform="translate(-0.4 -1.1)"/><path class="b" d="M61,69.3h1.9l6.5,15.2H67l-1.6-3.7H58.2l-1.5,3.7H54.3Zm3.7,9.6L61.8,72h0l-2.9,6.9Z" transform="translate(-0.4 -1.1)"/><path class="b" d="M33.3,32.3a4.6,4.6,0,0,1,4.6-4.6h0a4.7,4.7,0,0,1,4.6,4.6h0a4.6,4.6,0,0,1-4.6,4.6h0v-.5a4,4,0,0,0,4-4.1h0a4,4,0,0,0-4-4h0a4,4,0,0,0-4.1,4h0a4.1,4.1,0,0,0,4.1,4.1h0v.5a4.5,4.5,0,0,1-4.6-4.6Z" transform="translate(-0.4 -1.1)"/><path class="b" d="M29.6,32.3A8.3,8.3,0,0,1,37.9,24h0a8.3,8.3,0,0,1,8.3,8.3h0a8.3,8.3,0,0,1-8.3,8.3h0V40a7.7,7.7,0,0,0,7.7-7.7h0a7.8,7.8,0,0,0-7.7-7.7h0a7.7,7.7,0,0,0-7.7,7.7h0A7.6,7.6,0,0,0,37.9,40h0v.6a8.3,8.3,0,0,1-8.3-8.3Z" transform="translate(-0.4 -1.1)"/><path class="b" d="M25.6,32.3A12.3,12.3,0,0,1,37.9,20h0A12.3,12.3,0,0,1,50.2,32.3h0A12.3,12.3,0,0,1,37.9,44.6h0V44A11.7,11.7,0,0,0,49.6,32.3h0A11.8,11.8,0,0,0,37.9,20.6h0A11.7,11.7,0,0,0,26.2,32.3h0A11.7,11.7,0,0,0,37.9,44h0v.6A12.3,12.3,0,0,1,25.6,32.3Z" transform="translate(-0.4 -1.1)"/><path class="b" d="M21.7,32.3A16.2,16.2,0,0,1,37.9,16.2h0A16.1,16.1,0,0,1,54,32.3h0A16.2,16.2,0,0,1,37.9,48.5h0v-.6A15.5,15.5,0,0,0,53.4,32.3h0A15.4,15.4,0,0,0,37.9,16.8h0A15.5,15.5,0,0,0,22.3,32.3h0A15.6,15.6,0,0,0,37.9,47.9h0v.6A16.3,16.3,0,0,1,21.7,32.3Z" transform="translate(-0.4 -1.1)"/><path class="b" d="M17.5,32.3A20.3,20.3,0,0,1,37.9,12h0A20.3,20.3,0,0,1,58.2,32.3h0A20.3,20.3,0,0,1,37.9,52.7h0v-.6A19.8,19.8,0,0,0,57.7,32.3h0A20,20,0,0,0,37.9,12.5h0A19.8,19.8,0,0,0,18.1,32.3h0A19.7,19.7,0,0,0,37.9,52.1h0v.6A20.4,20.4,0,0,1,17.5,32.3Z" transform="translate(-0.4 -1.1)"/><polygon class="b" points="37.1 26.9 37.1 11.2 37.7 11.2 37.7 26.9 37.1 26.9 37.1 26.9"/><polygon class="b" points="23 17.3 23.4 16.8 34.6 28 34.2 28.4 23 17.3 23 17.3"/><polygon class="b" points="17.3 31.5 17.3 31 33.1 31 33.1 31.5 17.3 31.5 17.3 31.5"/><polygon class="b" points="23 45.2 34.2 34.1 34.6 34.5 23.4 45.6 23 45.2 23 45.2"/><polygon class="b" points="37.1 51.3 37.1 35.6 37.7 35.6 37.7 51.3 37.1 51.3 37.1 51.3"/><polygon class="b" points="40.3 34.5 40.7 34.1 51.8 45.2 51.4 45.6 40.3 34.5 40.3 34.5"/><polygon class="b" points="41.8 31.5 41.8 31 57.5 31 57.5 31.5 41.8 31.5 41.8 31.5"/><polygon class="b" points="40.3 28 51.4 16.8 51.8 17.3 40.7 28.4 40.3 28 40.3 28"/><path class="b" d="M34.8,33.6c.2,0,.1.2.2.3h.1a3.7,3.7,0,0,0,.5-1.1h0c0-.2-.2-.3-.3-.4s-.4,0-.6.2H35V33h-.1c-.1-.2-.3-.2-.5-.2s0,.1,0,.1-.5.1-.8.1h-.2l-.3.2c-.1,0-.2-.1-.1-.2s.3-.2.3-.3,0-.2.1-.4l.3-.2c.2,0,.5.1.6-.1l.2.2h0c-.1.1-.3.1-.3.2a.1.1,0,0,0,0,.2c.2.1.2-.1.3-.2h.2c.1-.1.3,0,.4,0s.1-.4.1-.6v-.2h0c.1-.2.3-.2.3-.1h.2a.3.3,0,0,1,.1-.2l.2.2h.4v-.2c-.1-.1-.1-.1-.1,0h-.4c-.1,0-.1-.1-.2-.2h-.3c-.1-.1-.2-.2-.1-.3h.1l.4-.2c0-.1.1-.2.1-.3s0-.1.1-.1h.4c.2,0,.3-.2.5-.3h.3c0-.2-.1-.5,0-.7s.1-.1,0-.2h-.1c-.1-.1-.1-.2,0-.2s.2,0,.2-.1.1-.4-.1-.4-.3,0-.4,0a.1.1,0,0,1-.1.1c-.2,0-.2-.2-.2-.3h0L36,28h.1c0,.1,0,.3-.2.2h0a.1.1,0,0,0-.2,0c0,.1.3.2.2.3s-.3.2-.5.3-.9,0-1.3.1h-.7c-.2,0-.2.1-.3.2h0v-.2l-.2-.2c-.2-.5-.9-.4-1.5-.3h-.6c-.2.1-.4-.1-.5,0H30V29h-.1c-.2.1-.4,0-.4.2h0c.1.2,0,.3-.2.4h-.5l-.3.2a4.3,4.3,0,0,0-.5,1.6h0a3.9,3.9,0,0,1-.8,1.4c-.1.3-.2.8,0,1s-.1.3-.2.4-.6-.1-.6-.3L26,34h-.6c-.2.1-.2.4-.3.6s-.4.1-.5.3.1.2,0,.3h-.2v.2a1.3,1.3,0,0,0-.1.6v.2a.8.8,0,0,1-.1.7c-.1.2-.4.2-.7.3H22.2c-.1.1-.1-.1-.2-.1s-.1-.3-.2-.3a.4.4,0,0,0-.5.2c.1-.1,0,0,.1,0l-.5.3c-.2.1-.2-.2-.2-.4s-.2-.2-.4-.1h0c-.1,0-.1-.1-.1,0s.1.1.1.2,0,.1,0,.1h-.2c0,.1-.1.1-.2.1H20c-.1,0-.1.1-.2,0s0-.1-.1-.2h0c-.1.2,0,.2-.2.2v.2c.1,0,.2-.1.3,0a.6.6,0,0,1,.1.4h0c0,.1,0,.3-.1.2s0-.3-.1-.4h-.1c.1.2-.1.4.1.6s-.3.3-.2.4h.3c.1,0,0-.1,0-.1s.2-.1.2-.1.1.1.1.2-.2,0-.2.1-.1.2-.1.3,0,.1.1.1.2,0,.2.1-.1.2,0,.3h.2v.2c.1,0,.2,0,.1.1h.1c.2,0,.1-.2.1-.3s0-.1-.1,0v-.3c-.1-.1-.2-.1-.2-.3s.2,0,.3-.1.1,0,.1.1a7961314590657.2,7961314590657.2,0,0,1,.2.2c.1.1.1.2.2.2h.5c.1-.1.1,0,.2.1s0,.2.2.3h.1a.1.1,0,0,0,.1.1c0,.1.1,0,.1,0s.1.1.1.2h.1c.1,0,.3.1.3.2l.3.5s.2.1.2.2h.4c.1.1.2,0,.3-.1a.1.1,0,0,0,.1.1c.1.2.1.5.3.6l.3.2H25c.1.1.3.2.3.4h.4l.3.3h.1c.1,0,.1-.1.1-.2h.2l.2-.3c.2,0,.2.2.4.3h.1c.1,0,0,.3.2.3a.9.9,0,0,1,.5.3h.8l.6-.2h.1c.3-.2.7.1,1-.1h.3c.2-.1.2-.4.2-.6s-.3-.7-.5-1l-.4-.3c0-.1-.2-.1-.2-.1s-.1-.2-.1-.3h-.2c0-.1,0-.2.1-.2a.1.1,0,0,0-.1-.1h-.7l.4-.2v-.2c.1,0,0-.2,0-.2s0-.1-.1-.1.1-.3,0-.5l-.3-.4h0v-.6a.3.3,0,0,1-.1-.2h.2c.1-.1.2-.2.1-.3s-.2,0-.3,0h-.1c0-.1.1-.2,0-.3h-.1c-.1-.1,0-.2,0-.3h0c-.1-.1,0-.2,0-.3s-.1-.2-.3-.2h-.2v-.2h.2c.1-.1,0-.3,0-.3a.6.6,0,0,1-.2-.5c-.2,0-.4,0-.4-.2s-.1-.4-.1-.7,0-.3.1-.4a.1.1,0,0,1,.1-.1.7.7,0,0,0,.6-.2c0-.1-.1-.3,0-.4s.6-.1.8-.2a.4.4,0,0,0,.1-.3l-.2-.3c-.1-.2-.3-.1-.3-.2a.2.2,0,0,1,0-.3.2.2,0,0,1,.2-.2.6.6,0,0,1,.7.1c.1,0,.1.1.2.2h0a1.4,1.4,0,0,1,.1.9c-.1.1-.2.1-.1.2h0c.1.2.2.5,0,.6s-.1-.1-.4,0h-.1a.3.3,0,0,0,.1.2l1.3.3.3.2h.5c0,.1,0,.1.1.2s.1.4.3.3.2,0,.4,0-.1.3,0,.5.3.1.4.3.2,0,.2-.1-.1-.4.1-.5-.1.6.1.9h.1c.1.2.1.3.3.3a.4.4,0,0,0,.1-.3h.1v-.3c.1-.1.2-.2.2-.3v-.2c0-.2.2-.3.4-.2s0-.1.1-.1,0-.3.1-.3l.2-.3a.1.1,0,0,0,0-.2Z" transform="translate(-0.4 -1.1)"/><path class="b" d="M29,33.3h-.2a.3.3,0,0,0-.1.2c.1.1.1.1.1.2v.4c.1.1.2.3.3.2s.2-.3.1-.5S29.1,33.4,29,33.3Z" transform="translate(-0.4 -1.1)"/><path class="b" d="M28.7,34.5c0,.1,0,.1.1.2s.2,0,.2-.1,0-.1,0-.1h-.2s-.1-.1-.1,0Z" transform="translate(-0.4 -1.1)"/><path class="b" d="M29,35.1c0-.3-.2-.3-.3-.2s0,.4.2.6v.2c.1.1.2,0,.3-.1h.1C29.3,35.3,29.2,35.1,29,35.1Z" transform="translate(-0.4 -1.1)"/><path class="b" d="M28.6,34c0-.1,0-.1-.1-.1s-.1.1-.1.2a.4.4,0,0,0,.1.3.1.1,0,0,0,.1-.1C28.7,34.2,28.6,34.1,28.6,34Z" transform="translate(-0.4 -1.1)"/><path class="b" d="M29.2,34.8a.3.3,0,0,0,.1-.2c0,.1.1,0,.1,0h0c-.1-.1-.2.1-.3.1S29.1,34.8,29.2,34.8Z" transform="translate(-0.4 -1.1)"/><path class="b" d="M29,36c0,.1,0,.2.1.2h.1c0-.1.1-.1,0-.2h0C29.1,36,29.1,36.1,29,36Z" transform="translate(-0.4 -1.1)"/><path class="b" d="M29.4,37.1c0-.1.1-.2,0-.3h-.2C29.2,36.9,29.3,37,29.4,37.1Z" transform="translate(-0.4 -1.1)"/><path class="b" d="M20.6,40.5s-.1.2,0,.2h.2C20.7,40.6,20.8,40.4,20.6,40.5Z" transform="translate(-0.4 -1.1)"/><path class="b" d="M21.5,41.4c-.1.2.1.3.3.3v-.2Z" transform="translate(-0.4 -1.1)"/><path class="b" d="M21.9,42c0,.2.1.4.3.4S22.2,42,21.9,42Z" transform="translate(-0.4 -1.1)"/><path class="b" d="M35.9,34.9l.8-.2c.6,0,.5-.7.9-1.2a1.4,1.4,0,0,0-.2-.6c-.2-.3-.8.1-1-.3s.5.2.5-.1a.4.4,0,0,0-.1-.3h-.3a6,6,0,0,0-.6,1.1c-.3.6-.9,1-1.3,1.7a.3.3,0,0,0,.1.2C35.2,35.4,35.5,35,35.9,34.9Z" transform="translate(-0.4 -1.1)"/><path class="b" d="M38.4,33.4h-.3v.3a.2.2,0,0,0,.3,0c0-.1-.1-.1-.1-.2S38.4,33.5,38.4,33.4Z" transform="translate(-0.4 -1.1)"/><path class="b" d="M36.5,35.5c.2.2.7.1.7-.1a.5.5,0,0,0-.6-.2C36.4,35.2,36.8,35.4,36.5,35.5Z" transform="translate(-0.4 -1.1)"/><path class="b" d="M37.2,37.3c.2-.1.1-.3.1-.5a.5.5,0,0,0-.3.5Z" transform="translate(-0.4 -1.1)"/><path class="b" d="M39.7,33.6v-.2h-.2c-.1,0-.1-.1-.1-.2s-.2-.2-.1-.4-.2.3-.1.3S39.4,33.7,39.7,33.6Z" transform="translate(-0.4 -1.1)"/><path class="b" d="M36.4,31.9c-.1-.1-.2,0-.1.1h.2A.1.1,0,0,1,36.4,31.9Z" transform="translate(-0.4 -1.1)"/><path class="b" d="M20,37.2c.1-.1,0-.1,0-.1s-.2,0-.2-.1v.2Z" transform="translate(-0.4 -1.1)"/><path class="b" d="M21,37.2c.1,0,.2-.1.1-.2h0c-.1-.1-.3-.1-.3.1S20.9,37.3,21,37.2Z" transform="translate(-0.4 -1.1)"/><path class="b" d="M36.8,27.5c0-.1.2-.1.1-.2a.1.1,0,0,0-.1-.1c-.1,0-.1.1-.1.2h0A.1.1,0,0,0,36.8,27.5Z" transform="translate(-0.4 -1.1)"/><path class="b" d="M37.3,27.3a.1.1,0,0,0,0-.2h-.2C37,27.2,37.2,27.4,37.3,27.3Z" transform="translate(-0.4 -1.1)"/><path class="b" d="M35.8,31c-.1.1.2.3.3.2s.1-.2,0-.3A.2.2,0,0,0,35.8,31Z" transform="translate(-0.4 -1.1)"/><path class="b" d="M36.1,32c.1,0,0-.1-.1-.1h-.2C35.9,31.9,36,32.1,36.1,32Z" transform="translate(-0.4 -1.1)"/><path class="b" d="M35.7,32.3a.2.2,0,0,0,0,.3c.1,0,.2,0,.2-.1a.2.2,0,0,0,0-.3C35.8,32.1,35.8,32.3,35.7,32.3Z" transform="translate(-0.4 -1.1)"/><path class="b" d="M35.4,31.9c0,.2-.1.3-.1.5h.2c0-.2,0-.3.1-.4a.1.1,0,0,0-.1.1c0-.1.1-.1,0-.1A.1.1,0,0,0,35.4,31.9Z" transform="translate(-0.4 -1.1)"/><path class="b" d="M37.2,39.7h0Z" transform="translate(-0.4 -1.1)"/><path class="b" d="M46,41.7Z" transform="translate(-0.4 -1.1)"/><path class="b" d="M38,36.4c-.1,0-.1,0-.1-.1h-.1c-.1-.1-.1.1-.2.1s-.1,0-.1.1,0,.1-.1.2.1.1.2.2-.1.2-.1.3-.1.1-.1.2a.3.3,0,0,0-.1.2c.1.1.3-.1.4-.1h.2c.1-.1.2-.1.2-.2s-.2-.1-.2-.1-.1-.2,0-.5Z" transform="translate(-0.4 -1.1)"/><path class="b" d="M38.8,39c0,.1.1.1.1,0s.1-.1,0-.2h-.2A.3.3,0,0,0,38.8,39Z" transform="translate(-0.4 -1.1)"/><path class="b" d="M38.9,38.6c.1,0,.1-.1,0-.1s-.1-.1-.1,0S38.8,38.7,38.9,38.6Z" transform="translate(-0.4 -1.1)"/><path class="b" d="M39.7,39.1h-.3c-.1,0-.1.1,0,.2S39.7,39.2,39.7,39.1Z" transform="translate(-0.4 -1.1)"/><path class="b" d="M41.2,38.9h-.5C40.8,39.1,41,39,41.2,38.9Z" transform="translate(-0.4 -1.1)"/><path class="b" d="M41.7,38.4c.1.3.3.2.3,0s-.1-.1-.2,0a.1.1,0,0,0,.1-.1Z" transform="translate(-0.4 -1.1)"/><path class="b" d="M48.3,34c0,.1.2.2.3.2H49a.4.4,0,0,0-.4-.4C48.4,33.7,48.4,33.9,48.3,34Z" transform="translate(-0.4 -1.1)"/><path class="b" d="M48.4,41.1h-.2c-.2.7-.8,1.6-.1,2.1a.6.6,0,0,0,.8-.4C49,42.2,49,41.4,48.4,41.1Z" transform="translate(-0.4 -1.1)"/><path class="b" d="M46.3,38.1c-.1,0-.2.3,0,.3h.2c.1-.1.1-.2,0-.2S46.3,38,46.3,38.1Z" transform="translate(-0.4 -1.1)"/><path class="b" d="M46.8,45.1c-.1.1-.1.3,0,.3s.2-.2.1-.3Z" transform="translate(-0.4 -1.1)"/><path class="b" d="M49.9,28.9c-.1,0-.1,0-.1.1v.3c-.3.6-1,1.1-.6,1.8h0a1,1,0,0,0,.4-.5l.6-1.3C50.2,29.1,50.1,28.9,49.9,28.9Z" transform="translate(-0.4 -1.1)"/><path class="b" d="M48.8,31.4c-.1.1.1.1.1.1s.2-.2.1-.2Z" transform="translate(-0.4 -1.1)"/><path class="b" d="M41.7,27.1c-.1-.3-.3,0-.4,0H41c-.1.1,0,.2.1.2h.2c0,.1,0,.4.2.3h.4c.1,0,.1-.2.1-.3s.3-.2.4,0,.1.1.1.2h.7c.1-.2.1-.3-.1-.4h-.2l-.3-.2C42.2,26.5,42,26.9,41.7,27.1Z" transform="translate(-0.4 -1.1)"/><path class="b" d="M42.9,27.4h0Z" transform="translate(-0.4 -1.1)"/><path class="b" d="M40.3,27.3h.4c0-.2-.2-.2-.3-.1h-.1Z" transform="translate(-0.4 -1.1)"/><path class="b" d="M40.8,28.2l.6-.4h0c0-.1-.1-.2-.2-.3a.2.2,0,0,1-.2.2l-.3.3v.4C40.8,28.4,40.8,28.3,40.8,28.2Z" transform="translate(-0.4 -1.1)"/><path class="b" d="M38.7,26.8c0,.1,0,.2.1.2s.1-.1,0-.2Z" transform="translate(-0.4 -1.1)"/><path class="b" d="M33.8,23.7h.5v-.2c-.1-.1-.3,0-.3-.1H34c-.2-.1-.2.1-.3.1Z" transform="translate(-0.4 -1.1)"/><path class="b" d="M46.4,26h-.3v.2h.4c-.1,0,0,0,0,.1s.1-.2.2-.1h0c-.1.1-.1.2-.2.2s-.2,0-.2-.1h-.1v.3c-.2.1-.6.2-.4.5h.7a.5.5,0,0,1,.2-.4h-.1c0-.1,0-.2.1-.2h.2a.2.2,0,0,0,.2-.2c-.1-.2-.2-.3-.2-.5h.2s.1-.1,0-.1h-.5C46.4,25.7,46.5,25.9,46.4,26Z" transform="translate(-0.4 -1.1)"/><path class="b" d="M44.9,27.4c0,.2.2.1.3,0h-.3Z" transform="translate(-0.4 -1.1)"/><path class="b" d="M47,27.1c-.1.1.2.1.3.1h0Q47,27,47,27.1Z" transform="translate(-0.4 -1.1)"/><path class="b" d="M47.4,26.4h-.1a.1.1,0,0,1,.1.1h0Z" transform="translate(-0.4 -1.1)"/><path class="b" d="M44.4,20.8c.1.1.2.2.2.3s0,.3.1.5h.1V22c0,.2.1.4.1.6H45c0,.1.1.2.1.3h.3a1,1,0,0,0,.4.5H46c0,.1,0,.1.1.1s.6.2.5.5l.2-.2a.6.6,0,0,0,0-.6c0-.1-.2-.2-.2-.3V23c0-.1-.2-.1-.2-.1s-.1-.4.2-.4a.1.1,0,0,1-.1-.1h-.3c0-.2.1-.3-.1-.4l-.3-.2-.3-.2c-.1-.1-.2.1-.3,0l-.5-.8h-.4c-.1,0,0,.1,0,.1h0C44.4,20.7,44.3,20.8,44.4,20.8Z" transform="translate(-0.4 -1.1)"/><path class="b" d="M43.1,21.3c-.1.1-.1.3,0,.3h.5c.1,0,.1-.1.2-.2h.5c0,.1.1.1.1.2s0-.3-.1-.4l-.2-.4H44c0,.2-.2.2-.4.2h-.1c-.1,0-.2,0-.2.1S43.1,21.2,43.1,21.3Z" transform="translate(-0.4 -1.1)"/><path class="b" d="M39.8,15.8a.9.9,0,0,1-.3-.9,1.7,1.7,0,0,0,1.2,0c.3-.1.7,0,1-.2s0-.1,0-.2-.6-.3-1-.1a3.1,3.1,0,0,1-1.2.5c-.4,0-1.2,0-1.3.5s1,0,1.3.4Z" transform="translate(-0.4 -1.1)"/><path class="b" d="M41.2,17.9a.7.7,0,0,0,.6.3V18Z" transform="translate(-0.4 -1.1)"/><path class="b" d="M40.9,18.6c-.1,0,0,.1.1.2S41.1,18.5,40.9,18.6Z" transform="translate(-0.4 -1.1)"/><path class="b" d="M40.6,18.2h0c.1,0,0-.1,0-.1a.2.2,0,0,0-.2-.2h0Z" transform="translate(-0.4 -1.1)"/><path class="b" d="M41.8,19.8h.1v-.2h0v-.2h-.1C41.7,19.6,41.8,19.7,41.8,19.8Z" transform="translate(-0.4 -1.1)"/><path class="b" d="M42.3,19.8c-.1,0,0,.1,0,.1h0Z" transform="translate(-0.4 -1.1)"/><path class="b" d="M42.1,20.1c0,.1.1,0,.1-.1h0c-.1-.1-.2-.2-.3-.1S42,20,42.1,20.1Z" transform="translate(-0.4 -1.1)"/><path class="b" d="M42.2,20.2h0c.1.1.2.2.3.1s.2-.1.1-.1h-.4Z" transform="translate(-0.4 -1.1)"/><path class="b" d="M42.9,20.4h-.1c-.1.1-.1.2,0,.2S42.8,20.5,42.9,20.4Z" transform="translate(-0.4 -1.1)"/><path class="b" d="M43.1,20.8h.1c.1,0,0-.1,0-.1h.1v-.2a.1.1,0,0,1-.1.1h0s-.1-.1-.1,0-.1.1-.1.2Z" transform="translate(-0.4 -1.1)"/><path class="b" d="M42.7,21.1h.1v-.2h-.1a.1.1,0,0,1-.1.1A.1.1,0,0,0,42.7,21.1Z" transform="translate(-0.4 -1.1)"/><path class="b" d="M42.4,14.2h-.3C42.2,14.2,42.3,14.3,42.4,14.2Z" transform="translate(-0.4 -1.1)"/><path class="b" d="M47,17.6h.4a.2.2,0,0,0,.2.2h.2a.7.7,0,0,0-.3-.6h-.6c-.2,0-.2.1-.1.2A.2.2,0,0,0,47,17.6Z" transform="translate(-0.4 -1.1)"/><path class="b" d="M52.7,24.8c-.1-.1-.1-.4-.2-.5L52,24c0-.1.1-.2,0-.3h-.1a1,1,0,0,0-.4-.5c.1-.2-.1-.3-.3-.4h-.3l-.3-.4c-.1-.2-.3-.3-.4-.4s-.1-.2-.2-.2-.3,0-.3-.2a.7.7,0,0,0-.4-.5c-.3-.2,0-.6-.1-.9s-.2-.2-.3-.2h-.1c-.1-.1,0-.4-.2-.5l-.6-.8h-.5a.1.1,0,0,1-.1-.1.5.5,0,0,0-.5-.3H46a1,1,0,0,0-.7.2l-.7.3c-.1,0,.1.1,0,.2s-.2.2-.1.3h.4l.3.4c0,.1-.1.2,0,.3s.1.2.1.4.1,0,.2.1.2.3.2.6,0,.3,0,.4.1.5.3.6h.2c.2,0,.2-.1.3-.2s.6.2.7.5,0,.5.1.8a1,1,0,0,0,.4.5l.2.3c0,.1,0,.2.1.1s.1-.1.2-.2h.2c.2.2.2.8.6.8h.1c.1,0,.2-.1.2,0l.2.3H50a.2.2,0,0,1,.2.2c.1.1.1.2.2.2s.4.8.7,1,.3.2.4.1h.1l.3-.3.4-.3h0l.4-.2A.3.3,0,0,0,52.7,24.8Z" transform="translate(-0.4 -1.1)"/><path class="b" d="M47.2,24.2h0Z" transform="translate(-0.4 -1.1)"/><path class="b" d="M46.9,25h.3l.2.3c.2.1.1-.2.2-.3h.2a.4.4,0,0,0-.2-.5l-.3-.4c-.1,0-.2,0-.2.1s0,.3-.1.4S46.9,24.9,46.9,25Z" transform="translate(-0.4 -1.1)"/><path class="b" d="M48,25.6a2.2,2.2,0,0,0-.1.8c0,.2-.2.1-.3.2a.4.4,0,0,0-.1.3.4.4,0,0,0,.4.2,2,2,0,0,1,.8.8c.1.1.1.3.2.4s.3.1.4.3h.2a.5.5,0,0,0,0-.5l-.2-.3a2.3,2.3,0,0,0-.3-1.1c-.1-.2-.3-.2-.5-.4v-.2c.1,0,.1-.1.2-.2s-.2-.3-.3-.5h0C48.2,25.4,48,25.4,48,25.6Z" transform="translate(-0.4 -1.1)"/><path class="b" d="M50,27.5c-.1-.1,0-.3-.1-.4s-.2-.2-.4-.2h-.2a.3.3,0,0,0,.1.2,3.3,3.3,0,0,1,.4,1.3.2.2,0,0,0,.4-.1.2.2,0,0,0,0-.3c0-.1-.1-.2-.1-.3S50,27.6,50,27.5Z" transform="translate(-0.4 -1.1)"/><path class="b" d="M49.5,26.3c-.2.1,0,.2,0,.4h.1c-.1,0-.1-.2-.1-.3Z" transform="translate(-0.4 -1.1)"/><path class="b" d="M49.4,25.9c0-.1,0-.2-.1-.2s-.2.1-.3.2,0,.2.1.2h.1c.2.1.3-.1.3-.3Z" transform="translate(-0.4 -1.1)"/><path class="b" d="M48.7,25.2c.2.1,0,.3.1.4h.4c.1-.1,0-.2-.1-.2s-.1-.1-.1-.2h-.1c-.1-.1.2-.2.1-.3h-.2a.1.1,0,0,1,0,.2S48.6,25.2,48.7,25.2Z" transform="translate(-0.4 -1.1)"/><path class="b" d="M48.6,24.4h-.4c-.1.1-.1.1-.1.2l.2.2c0,.1.2,0,.2,0a.1.1,0,0,0,.1.1c.1,0,0-.1.1-.2s-.1-.1-.1,0S48.7,24.4,48.6,24.4Z" transform="translate(-0.4 -1.1)"/><path class="b" d="M38.8,30.8h.1v-.2a.1.1,0,0,0-.1.1h.1Z" transform="translate(-0.4 -1.1)"/><path class="b" d="M49.6,29h-.5c-.3.2-.4.7-.6.9s-.3.2-.5.2h-.1v-.2c.1-.1.2-.1.2-.2s0-.3,0-.5a.6.6,0,0,0-.7-.4c-.3,0-.4.3-.6.6h-.1l-.3-.3h0c.1,0,.2.2.3.1s.1-.2,0-.2-.2-.2-.4-.1-.2-.2-.2-.3,0-.4-.2-.4l-.4-.2c-.1,0-.2.1-.2,0h0c.2,0,.4,0,.3-.2s-.2-.2-.3-.1h-.1c-.1.1,0,.3,0,.3l-.5.2h0c-.2-.1-.4-.2-.4-.1s-.1.2-.2.2h-.3c-.2.1-.1.3,0,.5V29c-.1,0-.1-.1-.2-.2v-.5c-.1-.1.1-.2.2-.4s.1-.2,0-.3-.2-.2-.3-.1-.4.6-.7.4l-.4-.3c-.1,0-.2-.1-.3,0l-.7.3a1.5,1.5,0,0,0-.5.6c-.1.2-.6.4-.8.1s-.2-.3-.4-.3l-.4.3c-.1,0-.2,0-.2-.1h0l.8-.5c.1,0,.1-.2.1-.3s0-.1-.1-.1v-.2a1.1,1.1,0,0,0-.9.6h0c-.3,0-.5.1-.7,0v-.3l-.3.4h-.1c-.1.2.1.4.1.6h-.4c-.1,0-.1.1-.1.2h.2c.1.1.1.3.3.4h.7l.4.3c0,.1.1.2.1.3h.2c0,.1.1,0,.2,0s.1.2.1.3,0,.3.1.5,0,.2-.1.3h-.2a.6.6,0,0,0,.1.4h.2l.3.5c0,.1.1.1.1.2h-.1a.2.2,0,0,0,.3,0h.2c.1-.1.2,0,.2-.1v.2c-.1.2-.4.1-.5.2h-.3a.3.3,0,0,0,.1.2c.3,0,.1.5-.1.7v.3h-1a.2.2,0,0,0-.2.2h0a.3.3,0,0,1-.1.2V35a2.1,2.1,0,0,0-.4,1c0,.1.2.2.2.2h.3c.1,0,.1.3.2.4s.2.1.2-.1a.4.4,0,0,0,.1-.3c.1-.2-.1-.3-.1-.4s0-.3.1-.4a.1.1,0,0,1,.1.1.4.4,0,0,1,.1.3V36c.1,0,.1.1.1.2h-.1c-.1.1,0,.3-.1.3s-.1.2-.2.2-.5-.1-.4-.4h-.3v.4l-.3.3h0c-.1.2-.3.2-.4.4h-.1c-.1.1-.2-.1-.3.1s.2.2.2.3,0,.2-.1.2a.5.5,0,0,1-.5,0,.1.1,0,0,1-.1.1c0,.2,0,.3-.1.4a.2.2,0,0,0,.1.3c.1.2.1.3.2.3h.2c.2,0,.3-.1.4-.3s.2.1.3,0H38c0-.1-.1-.3,0-.3s.3-.4.6-.5.1-.1.3-.1h.2c.1.1.2.1.2.2h.2l.4.4h0c0-.1,0-.3-.1-.3l-.3-.4c-.1,0-.1-.1,0-.2h.1c0,.1.1.1.2.2s.2.3.3.4l.3.2a.4.4,0,0,0,.4-.2c0-.1-.1-.1-.1-.2s0-.1.1-.2,0-.2,0-.4h.1v-.5h.3l.3-.2c.1-.2.4-.1.4,0s0,.3,0,.3l-.8.3h0c-.2.1-.2.2-.1.3a.2.2,0,0,1-.2.2c.1.1.1.2.2.2s.4.1.5-.1a.1.1,0,0,0,0-.2h.4c.2-.1.3.2.3.4a.1.1,0,0,1-.1.1c-.2.2-.2.4-.4.5l-1,.2c-.1.1-.1.3-.3.3a.3.3,0,0,1-.4,0h-.5c-.1,0,0-.1-.1-.2h-.2v-.2H38.1c-.1-.1-.1.1-.2.1s-.1.1-.2.2h-.9c-.2,0-.3.2-.5.3s-.3.2-.5.1h-.1a2.2,2.2,0,0,0-.6.7v.2l-.4.6h0l.6.7.2.2.3.5a.7.7,0,0,0,.8.2h.3a1.7,1.7,0,0,0,1-.1c.5.2.9,0,1.4.2a.5.5,0,0,0,.1.3l.4.5.6.2v.2s0,.2.1.2.2.2.2.3-.2.3-.1.6v.2l.8.7c.1.1.1.1.1.2s.1.1.2.2a.4.4,0,0,1,.1.3l.4.3c.1.2.4.2.5.2H43c.2,0,.4.1.5-.1l.3-.2.6-.2h.1c0-.1.1-.1.1-.2l.4-.2.6-.5c.2-.2.6-.1.7-.4s-.1-.5,0-.7.2-.3.2-.5v-.6c0-.2-.1-.3-.1-.4s.1-.1.2-.2.1-.4.2-.6H47c.1,0,0-.1,0-.2a.1.1,0,0,1-.1-.1,1.6,1.6,0,0,0-.7-.7c-.1,0-.1-.1-.2-.2s.1-.1,0-.1a.1.1,0,0,1,0-.2h0l.3-.5c.1,0,.2,0,.2-.1a.6.6,0,0,0-.1-.4c-.1-.2,0-.4,0-.6a2.2,2.2,0,0,0-.2-1.1c-.1-.1-.2-.2-.3-.1s0,.1-.1.1,0,.1-.1.2-.2.2-.2.3a.3.3,0,0,0-.1.2l-.2.2h-.8l-2.3-.8h0c.1-.1.2,0,.4,0s0-.2,0-.2l.5.2a2.9,2.9,0,0,0,1,.3l.7.3.5-.2h0l.3-.3v-.4h.2V38c.1.1.2,0,.1-.1h0v-.3a.9.9,0,0,0-.1-.7H45c-.1.1-.1.3-.2.4l-.5.3c-.1,0-.3,0-.3-.1s.3-.3.5-.4.1,0,.1-.1.1-.2.3-.3h.2c.1,0,.1-.1.2-.2s.1-.1.1-.2l.3-.3c.1-.3.1-.6.3-.8s.1.2.1.2a.3.3,0,0,0,.4,0c.1,0,0-.2.1-.3h.2c.1.1.2.2.3.1h.6c.3-.1.9.1.8-.2a1.2,1.2,0,0,0-.8-1c-.3-.2-.2-.6-.5-.9a.3.3,0,0,0-.1-.2H47a.1.1,0,0,1-.1-.1c.1-.2,0-.4.1-.6l.3-.2c.1-.1.3-.1.3-.3v-.5l.2-.2a1.7,1.7,0,0,0,1-.1.3.3,0,0,1,.1-.2c.2-.4.6-.6.6-1.1v-.2Zm-6.3,7.5h0c-.1.1-.2,0-.2-.1a.2.2,0,0,0-.2-.2h-.2c-.1-.1-.1,0-.2,0s-.1-.2-.2-.3-.1-.2.1-.2.1,0,.2.1h-.1c.1,0,.2-.1.3,0s.3,0,.4,0h0c.2,0,.2.1.2.3Z" transform="translate(-0.4 -1.1)"/><path class="b" d="M30.5,60.7c1.8-2.7,7.2-5.5,12.4-5.5S54,58.3,56.3,56.6c0,0-2.3,2-7,2s-6.5-2.3-9.8-2.3-6.7,2.6-8.1,4.8Z" transform="translate(-0.4 -1.1)"/><path class="b" d="M47.2,54.8a6.5,6.5,0,0,0,2.4-2.6,17.7,17.7,0,0,1,5.1-6.1s-2.4,7.6-4.9,7.9c0,0-.4.3.3.1s3.9-1.2,5-1.4,3.9-.9,4.6-1.6a1.3,1.3,0,0,1,1.1-.5s-3.1,5.1-8.6,5.1A26.8,26.8,0,0,1,47.2,54.8Z" transform="translate(-0.4 -1.1)"/><path class="b" d="M53.7,52.2a5.3,5.3,0,0,0,.7-2.4A21.4,21.4,0,0,1,58.1,41s.4,6-2.6,9.7c0,0-.2.5.2.1a31.8,31.8,0,0,1,6.4-5.4s2.1-1.8,2.2-2.4S62.7,51.6,53.7,52.2Z" transform="translate(-0.4 -1.1)"/><path class="b" d="M58.9,46.5a11.1,11.1,0,0,0,.2-1.8c0-.8-.3-3.6-.3-4.9a10.3,10.3,0,0,1,1.1-5.1,6.2,6.2,0,0,0,.3,2,16.3,16.3,0,0,1,.6,3.4,9,9,0,0,1-.6,3.5,2.2,2.2,0,0,0,.8-1,22,22,0,0,1,3.1-3.9A6.8,6.8,0,0,0,66,35.6a8.7,8.7,0,0,1-1.6,5.7c-2.1,3-2.9,2.5-4.1,3.7S59.1,46.5,58.9,46.5Z" transform="translate(-0.4 -1.1)"/><path class="b" d="M62.1,39.7a7.9,7.9,0,0,0-.4-2.2,15.7,15.7,0,0,1-1.8-8.2s.4-.3.9,1.4,1.4,2.1,1.7,3.8a16.1,16.1,0,0,1,.3,2.4s.2.2.2,0a15.1,15.1,0,0,1,1.1-4.5c.9-2,2.2-4,2.1-5.3s.5,0,.4,2.2A15.8,15.8,0,0,1,62.1,39.7Z" transform="translate(-0.4 -1.1)"/><path class="b" d="M63.1,33A8.5,8.5,0,0,0,62,30.9c-.5-.5-3.7-5.2-4-7.3,0,0,.3-.2.6.4a16.3,16.3,0,0,0,2.2,2.3,7.1,7.1,0,0,1,2,3.8s.2.2-.1-2.9,1-5.1-.1-7.3c0,0,1.5.3,2.3,6.6a13.6,13.6,0,0,1-1.2,5S63.3,33,63.1,33Z" transform="translate(-0.4 -1.1)"/><path class="b" d="M62,26a10.1,10.1,0,0,0-2.2-1.8c-1-.6-4-3.6-4.5-5.9,0,0,.1-.3,1.1,1s1.5.5,3.7,3.3c0,0,.4.6.5.5s-.1-.6-.1-.6a16.4,16.4,0,0,1-.4-2.4,27,27,0,0,0-1.3-4.3s3,1.7,3.4,6.5C62.2,22.3,62.1,25.8,62,26Z" transform="translate(-0.4 -1.1)"/><path class="b" d="M59.4,20.9s.2-4.2-5.3-6.4c0,0,1.9,4,3.3,4.9A8.5,8.5,0,0,1,59.4,20.9Z" transform="translate(-0.4 -1.1)"/><path class="b" d="M45.3,60.7c-1.8-2.7-7.2-5.5-12.5-5.5s-11.1,3.1-13.3,1.4c0,0,2.3,2,7,2s6.5-2.3,9.7-2.3,6.7,2.6,8.2,4.8Z" transform="translate(-0.4 -1.1)"/><path class="b" d="M28.5,54.8a6.6,6.6,0,0,1-2.3-2.6,18.9,18.9,0,0,0-5.1-6.1S23.5,53.7,26,54c0,0,.4.3-.3.1s-3.9-1.2-5-1.4-3.9-.9-4.7-1.6-1-.5-1-.5,3.1,5.1,8.6,5.1A25.1,25.1,0,0,0,28.5,54.8Z" transform="translate(-0.4 -1.1)"/><path class="b" d="M22,52.2a5.3,5.3,0,0,1-.7-2.4A18.9,18.9,0,0,0,17.6,41s-.4,6,2.6,9.7c0,0,.2.5-.2.1a26.8,26.8,0,0,0-6.3-5.4s-2.2-1.8-2.3-2.4S13.1,51.6,22,52.2Z" transform="translate(-0.4 -1.1)"/><path class="b" d="M16.9,46.5a7.6,7.6,0,0,1-.3-1.8c0-.8.4-3.6.4-4.9a10.3,10.3,0,0,0-1.1-5.1,6.2,6.2,0,0,1-.3,2,17.2,17.2,0,0,0-.7,3.4,11.4,11.4,0,0,0,.6,3.5,3.5,3.5,0,0,1-.8-1,20.3,20.3,0,0,0-3-3.9,7.7,7.7,0,0,1-2-3.1,8.5,8.5,0,0,0,1.7,5.7c2,3,2.9,2.5,4,3.7S16.7,46.5,16.9,46.5Z" transform="translate(-0.4 -1.1)"/><path class="b" d="M13.6,39.7a7.9,7.9,0,0,1,.4-2.2,14.7,14.7,0,0,0,1.8-8.2s-.3-.3-.9,1.4-1.4,2.1-1.7,3.8a23.8,23.8,0,0,0-.2,2.4s-.2.2-.2,0a15.1,15.1,0,0,0-1.1-4.5c-1-2-2.2-4-2.1-5.3s-.5,0-.5,2.2A16.4,16.4,0,0,0,13.6,39.7Z" transform="translate(-0.4 -1.1)"/><path class="b" d="M12.6,33a10.1,10.1,0,0,1,1.2-2.1c.4-.5,3.6-5.2,3.9-7.3,0,0-.3-.2-.6.4A16,16,0,0,1,15,26.3a7.1,7.1,0,0,0-2.1,3.8s-.1.2.2-2.9-1-5.1.1-7.3c0,0-1.5.3-2.4,6.6a16.6,16.6,0,0,0,1.2,5S12.4,33,12.6,33Z" transform="translate(-0.4 -1.1)"/><path class="b" d="M13.8,26A10.1,10.1,0,0,1,16,24.2c.9-.6,4-3.6,4.5-5.9,0,0-.2-.3-1.2,1s-1.5.5-3.7,3.3c0,0-.3.6-.4.5s0-.6,0-.6a13.4,13.4,0,0,0,.5-2.4,19.4,19.4,0,0,1,1.2-4.3s-3,1.7-3.4,6.5A25.1,25.1,0,0,0,13.8,26Z" transform="translate(-0.4 -1.1)"/><path class="b" d="M16.4,20.9s-.2-4.2,5.3-6.4c0,0-1.9,4-3.4,4.9A9,9,0,0,0,16.4,20.9Z" transform="translate(-0.4 -1.1)"/></svg>